<svg
  xmlns="http://www.w3.org/2000/svg"
  viewBox="0 0 24 24"
  fill="#ffffff"
>
  <path d="M23.954 4.569a10 10 0 01-2.825.775 4.958 4.958 0 002.163-2.723 9.865 9.865 0 01-3.127 1.195 4.92 4.92 0 00-8.384 4.482A13.978 13.978 0 011.671 3.149a4.822 4.822 0 001.523 6.574 4.897 4.897 0 01-2.229-.616c-.054 2.281 1.581 4.415 3.949 4.89a4.935 4.935 0 01-2.224.085 4.928 4.928 0 004.604 3.417A9.867 9.867 0 010 19.54a13.94 13.94 0 007.548 2.209c9.142 0 14.307-7.721 13.995-14.646a9.936 9.936 0 002.411-2.535z" />
</svg>